<?xml version="1.0" encoding="UTF-8"?>
<!-- Created with Inkscape (http://www.inkscape.org/) -->
<svg width="64" height="64" version="1.1" viewBox="0 0 16.933 16.933" xmlns="http://www.w3.org/2000/svg">
 <g fill="#ffd42a">
  <rect x="-.13784" y="-.16081" width="17.184" height="17.23" fill="#c7c59f" stroke-width=".26458"/>
 </g>
 <g stroke="#000">
  <path transform="matrix(.57229 0 0 .57229 -3.0462 -4.404)" d="m11.774 16.11q-0.96 0-1.488-0.528-0.504-0.552-0.504-1.32 0-0.192 0.048-0.456 0.072-0.264 0.168-0.456 0.312 0.144 0.912 0.216 0.624 0.048 1.44 0.048 1.224 0 2.76-0.096 1.56-0.12 2.976-0.24t2.496-0.216q1.08-0.12 1.392-0.12 0.888 0 1.272 0.672 0.408 0.648 0.6 1.752-0.624-0.048-1.248-0.072-0.6-0.048-1.032-0.048-0.768 0-1.56 0.048-0.768 0.048-1.56 0.144-0.336 0.696-0.744 1.656-0.408 0.936-0.816 1.968-0.384 1.032-0.744 2.064-0.36 1.008-0.624 1.824-0.528 1.584-0.936 2.928-0.384 1.344-0.696 2.52-0.288 1.152-0.504 2.208t-0.384 2.064q-1.608-0.24-2.688-2.016 0.192-0.744 0.456-1.608 0.288-0.888 0.648-1.992 0.384-1.128 0.888-2.544t1.152-3.216q0.24-0.672 0.504-1.392 0.264-0.744 0.504-1.464 0.264-0.72 0.456-1.392 0.216-0.672 0.36-1.224-1.008 0.12-1.92 0.216-0.888 0.072-1.584 0.072zm18.288 13.176q0.6 1.032 0.6 1.992 0 0.216-0.048 0.384-0.024 0.192-0.072 0.384-0.408-0.048-0.864-0.072-0.432-0.024-0.912-0.024-0.576 0-1.176 0.024-0.576 0.048-1.296 0.12t-1.608 0.192-2.064 0.312q-0.552-0.192-1.104-0.768-0.552-0.552-1.032-1.344 0.24-0.528 0.6-1.296 0.36-0.792 0.84-1.896 0.48-1.128 1.056-2.616 0.6-1.512 1.272-3.48 0.432-1.296 0.744-2.28t0.552-1.896q0.264-0.936 0.504-1.944t0.528-2.328q0.96 0.192 1.656 0.72 0.72 0.504 1.368 1.464-0.192 0.312-0.504 1.008t-0.744 1.704q-0.408 0.984-0.912 2.256-0.504 1.248-1.056 2.688-0.528 1.416-1.032 2.664t-0.912 2.256q-0.384 1.008-0.624 1.728t-0.24 1.08q0.384-0.024 0.696-0.048t0.648-0.072q0.336-0.072 0.72-0.144 0.408-0.096 0.96-0.24 0.48-0.12 0.888-0.192 0.408-0.096 0.792-0.144 0.408-0.072 0.816-0.096 0.432-0.048 0.96-0.096z" stroke-width="1.4362" style="shape-padding:0.176777;white-space:pre" aria-label="TL"/>
 </g>
</svg>
